Coordinates
version=1
nRows=19
nColumns=36
inDegrees=yes

Units are S.I. units (second, meters, Newtons, ...)
If the header above contains a line with 'inDegrees', this indicates whether rotational values are in degrees (yes) or radians (no).

endheader
time	pelvis_tilt	pelvis_list	pelvis_rotation	pelvis_tx	pelvis_ty	pelvis_tz	hip_flexion_r	hip_adduction_r	hip_rotation_r	knee_angle_r	knee_angle_r_beta	ankle_angle_r	subtalar_angle_r	mtp_angle_r	hip_flexion_l	hip_adduction_l	hip_rotation_l	knee_angle_l	knee_angle_l_beta	ankle_angle_l	subtalar_angle_l	mtp_angle_l	lumbar_extension	lumbar_bending	lumbar_rotation	arm_flex_r	arm_add_r	arm_rot_r	elbow_flex_r	pro_sup_r	arm_flex_l	arm_add_l	arm_rot_l	elbow_flex_l	pro_sup_l
      0.00000000	      5.80681256	     -0.31622474	      2.27322919	     -0.13795237	      1.29725099	      0.36365339	     -9.43004816	      0.46874463	      1.61095896	      0.10475355	      0.00182829	      3.12934053	     -8.06877511	     -6.17580586	     -9.15327697	     -1.69148565	      4.50840305	      0.37741787	      0.00658718	      4.43198065	     -7.46118666	     -6.17580586	     -9.19069372	      0.89309394	     -0.99064481	      2.25028439	     -8.51635614	      1.92823340	     19.36775778	     86.77793510	      4.11605677	     -7.34332735	      3.62538450	     20.57418502	     85.06092789
      0.01666670	      4.42727660	     -0.51605433	      2.02022409	     -0.14280616	      1.29321402	      0.36099799	     -7.59409989	      0.60385708	      3.61688674	      0.10429438	      0.00182028	      4.45399319	     -9.26717074	     -6.41126486	     -7.76611881	     -1.86941148	      6.58305236	      0.36822124	      0.00642667	      4.27507546	     -8.24457904	     -6.41126486	     -6.54413456	      1.25480825	      1.02052431	      1.60162382	     -9.30252983	      3.63055646	     19.61709893	     86.17620531	     -0.05645574	     -7.58982618	      3.36971853	     19.68387213	     83.75664037
      0.03333330	      3.69342448	     -0.80915379	      1.85490981	     -0.14296324	      1.29295742	      0.36084191	     -6.70334792	      0.86629053	      4.26282958	      0.10576814	      0.00184600	      4.31322885	     -9.33608971	     -6.62119631	     -6.86308940	     -2.20070485	      6.99139825	      0.24224174	      0.00422792	      4.23883361	     -7.96474014	     -6.62119631	     -5.85979209	      1.90911025	      0.07437882	      2.49237453	     -9.48309587	      4.34304640	     18.23416090	     84.26769767	      1.41557440	     -7.27291212	      4.07082783	     19.82315424	     81.95904585
      0.05000000	      3.28428050	     -0.93036317	      2.08681581	     -0.13402137	      1.28867020	      0.36338070	     -6.39868020	      0.99516763	      3.97538035	      0.10657512	      0.00186009	      4.95507560	     -8.67907351	     -6.82780724	     -6.36380048	     -2.39317063	      7.89278517	      0.22525207	      0.00393139	      4.21934495	     -8.34622208	     -6.82780724	     -4.56063338	      2.21765701	      0.36710182	      2.71105905	    -10.25896023	      8.86122452	     18.36531331	     84.19180455	     -1.43942309	     -7.82744957	      5.32425726	     19.29777385	     81.08797215
      0.06666670	      3.35007366	     -0.99834012	      2.14487926	     -0.13489762	      1.28841084	      0.36337200	     -6.53152306	      1.08982848	      3.87977868	      0.11093674	      0.00193621	      5.73981087	     -7.97555047	     -6.93686131	     -6.45205201	     -2.55949132	      7.91972543	      0.20927593	      0.00365255	      4.62346039	     -7.52820931	     -6.93686131	     -4.67204470	      2.37823057	     -0.83653986	      3.21989528	    -10.08314149	      9.28224965	     17.40050131	     83.36138696	      0.10518894	     -7.79852252	      5.90617263	     19.94027351	     80.64997121
      0.08333330	      3.64013349	     -1.01380573	      1.87665475	     -0.13472064	      1.28873459	      0.36366314	     -6.92287102	      1.10197575	      4.09837178	      0.11804262	      0.00206023	      6.17341662	     -7.98010393	     -7.03044531	     -6.83794003	     -2.60099046	      7.62709201	      0.23011964	      0.00401635	      4.77419402	     -7.29520545	     -7.03044531	     -4.55436197	      2.45052891	      0.20120479	      2.97086494	    -10.29566397	     10.25473302	     17.90564127	     82.42665795	     -2.14903724	     -7.97518068	      5.06203557	     19.15939093	     79.64128208
      0.10000000	      3.78232155	     -1.01541770	      1.80859831	     -0.13499953	      1.28840710	      0.36350143	     -7.17325794	      1.10377076	      4.17649523	      0.12385127	      0.00216161	      6.31846594	     -8.15847595	     -7.12321824	     -7.05197324	     -2.65687489	      7.40963491	      0.23045481	      0.00402220	      4.88007207	     -7.06802784	     -7.12321824	     -4.91634344	      2.39276786	     -0.85884696	      3.14108055	    -10.01953075	     10.45649481	     17.40236126	     79.85232881	     -0.25779472	     -7.85822154	      5.47359427	     20.16484908	     77.58097851
      0.11666670	      3.94294059	     -1.02419199	      1.56000324	     -0.13478416	      1.29225313	      0.36376317	     -7.45887454	      1.10827732	      4.29688479	      0.13226471	      0.00230845	      6.53045123	     -8.08453139	     -7.20943875	     -7.30025233	     -2.66621008	      6.95357170	      0.25987976	      0.00453576	      4.90443689	     -6.78558677	     -7.20943875	     -4.70583006	      2.44758671	      0.23515659	      2.55000077	    -10.16580847	     10.72825402	     18.02474095	     77.80525245	     -2.52932199	     -8.02413511	      4.85434882	     19.42527637	     75.70478090
      0.13333330	      4.09852157	     -1.00935974	      1.58881998	     -0.13583310	      1.29256752	      0.36366268	     -7.68444133	      1.11597680	      4.46013782	      0.13749143	      0.00239968	      6.44878025	     -8.68192261	     -7.24829931	     -7.53302384	     -2.68423765	      6.76087230	      0.25956398	      0.00453025	      4.91035426	     -6.69225009	     -7.24829931	     -5.31871394	      2.40040622	     -0.94823670	      3.07942137	     -9.96616912	     11.17322935	     17.76499538	     76.73782107	     -0.34141678	     -7.93863600	      5.63484933	     20.65081751	     74.99743665
      0.15000000	      4.14891565	     -1.00777594	      1.45157219	     -0.13527415	      1.29276835	      0.36374167	     -7.79618814	      1.09959953	      4.39998956	      0.14565394	      0.00254214	      6.67144313	     -8.45888660	     -7.28368495	     -7.63379278	     -2.67113589	      6.28730572	      0.29044645	      0.00506925	      4.72952165	     -6.62311027	     -7.28368495	     -5.02202253	      2.48006290	      0.31851974	      2.35231182	    -10.24143035	     11.57175629	     18.61279874	     75.82411162	     -2.91242611	     -8.18653768	      5.14083442	     20.13937238	     74.12768621
      0.16666670	      4.19044437	     -0.97263059	      1.43280082	     -0.13637067	      1.29261216	      0.36383908	     -7.86655279	      1.07928230	      4.97548525	      0.14862811	      0.00259405	      6.29851225	     -9.51760919	     -7.30429952	     -7.69002740	     -2.65353848	      6.01156410	      0.28482647	      0.00497116	      4.65467805	     -6.47382344	     -7.30429952	     -5.60676780	      2.39514147	     -0.62662832	      2.93611528	    -10.06672460	     12.10284317	     17.93302162	     74.88475070	     -0.23249499	     -7.98371382	      5.95401335	     21.16598671	     73.49821930
      0.18333330	      4.31027566	     -0.93263383	      1.58992229	     -0.13620642	      1.29602819	      0.36362424	     -8.07529011	      1.07706337	      4.56959739	      0.15263737	      0.00266402	      6.61972091	     -8.98751206	     -7.34146229	     -7.76889397	     -2.61944735	      5.88770194	      0.30296818	      0.00528779	      4.63058988	     -6.10989389	     -7.34146229	     -5.43995102	      2.42130443	      0.38530129	      2.38289039	    -10.32980355	     12.39843020	     18.78003700	     73.64530338	     -2.96772315	     -8.33729035	      5.60701269	     20.42962072	     72.42783538
      0.20000000	      4.34854552	     -0.89047329	      1.75587515	     -0.13731660	      1.29584835	      0.36353968	     -8.15971278	      1.08862612	      4.69715763	      0.15543341	      0.00271282	      6.44491848	     -9.49920954	     -7.36612716	     -7.79143576	     -2.60956089	      5.53635333	      0.28677933	      0.00500524	      4.86065068	     -5.30217266	     -7.36612716	     -6.05534406	      2.35429061	     -0.72245105	      3.10225705	    -10.07467346	     13.21198691	     17.77895149	     72.29527353	      0.21917701	     -8.09868808	      6.90367208	     21.25900525	     71.51437311
      0.21666670	      4.48358988	     -0.87023104	      1.78769096	     -0.13702240	      1.29560792	      0.36334415	     -8.34999386	      1.09804346	      4.54748149	      0.16153643	      0.00281934	      6.68171804	     -9.13012953	     -7.39420977	     -7.90053134	     -2.56771812	      5.48137348	      0.30297890	      0.00528798	      4.61326230	     -5.34554133	     -7.39420977	     -5.82035062	      2.42738631	      0.43382317	      2.24914373	    -10.41588186	     13.46427878	     18.79125258	     71.25592156	     -2.94006813	     -8.51449397	      6.46721396	     20.46443404	     70.61251531
      0.23333330	      4.82611647	     -0.84106750	      1.93946226	     -0.13823889	      1.28925450	      0.36322280	     -8.75307258	      1.11690886	      4.10182495	      0.16503556	      0.00288041	      6.90221715	     -8.74679284	     -7.40829851	     -8.27962155	     -2.56381663	      5.06967794	      0.29285700	      0.00511132	      4.88729269	     -4.46764340	     -7.40829851	     -6.88406948	      2.36545648	     -0.79034881	      3.00521849	    -10.22566741	     14.14164457	     18.00666519	     70.49250105	      0.67721975	     -8.23373715	      7.60185113	     21.64676954	     70.15931514
      0.25000000	      4.65536568	     -0.86003881	      1.94280648	     -0.13714710	      1.29191316	      0.36286626	     -8.59966423	      1.15732488	      4.30828501	      0.17349273	      0.00302802	      6.87536960	     -9.13717926	     -7.43083065	     -8.02483548	     -2.56048322	      5.23008398	      0.34989874	      0.00610689	      4.51273310	     -5.15278922	     -7.43083065	     -6.05869894	      2.42299391	      0.45498187	      2.03302313	    -10.68404346	     15.15200353	     18.84663569	     69.86201249	     -3.10372853	     -8.76534306	      7.24192512	     20.63579237	     69.84837066
      0.26666670	      4.93650579	     -0.80812245	      2.06112825	     -0.13859559	      1.29197147	      0.36273288	     -8.93765143	      1.13457908	      4.15391344	      0.17569808	      0.00306651	      6.92406426	     -9.22686862	     -7.45026985	     -8.36152281	     -2.52090362	      5.08849250	      0.33392242	      0.00582805	      4.55201341	     -4.91663748	     -7.45026985	     -7.17987984	      2.37264861	     -0.85653330	      3.30476757	    -10.66013602	     17.04447525	     17.87945749	     68.93810516	      1.17134153	     -8.72567889	     10.84965556	     22.07922970	     69.62188784
      0.28333330	      4.85712620	     -0.82772173	      1.94110801	     -0.13786229	      1.29197847	      0.36267540	     -8.89861169	      1.15734653	      4.11693591	      0.18297017	      0.00319343	      7.14691393	     -9.05572200	     -7.45620301	     -8.22573364	     -2.51800926	      4.72307496	      0.41065090	      0.00716721	      4.49405429	     -4.84821864	     -7.45620301	     -6.38963711	      2.43039150	      0.70752408	      2.22107728	    -11.11084428	     16.70649606	     19.10375890	     68.38345134	     -3.09302560	     -9.24640781	      9.74547980	     20.74544619	     69.06089969
      0.30000000	      4.94153546	     -0.77944645	      2.19160234	     -0.13913263	      1.29521729	      0.36242968	     -9.01645492	      1.15581501	      3.90962081	      0.18287072	      0.00319170	      7.16978744	     -9.17718090	     -7.46914868	     -8.32486633	     -2.50149661	      4.77559416	      0.38064966	      0.00664359	      4.61692232	     -4.52191397	     -7.46914868	     -7.27976427	      2.32251869	     -0.72888707	      3.50911841	    -10.98671610	     18.44421484	     18.23551829	     67.45149603	      1.65170170	     -9.10657526	     12.94695244	     22.32811620	     69.11059553
